<?xml version="1.0" encoding="utf-8"?>
<!-- Generator: Adobe Illustrator 19.1.0, SVG Export Plug-In . SVG Version: 6.00 Build 0)  -->
<svg version="1.1" id="Lager_1" xmlns="http://www.w3.org/2000/svg" xmlns:xlink="http://www.w3.org/1999/xlink" x="0px" y="0px"
	 width="64px" height="64px" viewBox="0 0 64 64" style="enable-background:new 0 0 64 64;" xml:space="preserve">
<style type="text/css">
	.st0{opacity:0.75;}
	.st1{fill:#FFFFFF;}
</style>
<g class="st0">
	<g>
		<g>
			<path class="st1" d="M32,0C15.5,0,0,12.7,0,32c0,17.7,14.3,32,32,32s32-14.3,32-32S49.7,0,32,0z M51.4,51.4
				c-5.2,5.2-12.1,8-19.4,8s-14.2-2.9-19.4-8c-5.2-5.2-8-12.1-8-19.4s2.9-14.2,8-19.4c5.2-5.2,12.1-8,19.4-8s14.2,2.9,19.4,8
				c5.2,5.2,8,12.1,8,19.4S56.6,46.2,51.4,51.4z"/>
		</g>
		<path class="st1" d="M45.7,13.7c0,0-14.5,12-17.1,14.9S18.3,50.3,18.3,50.3s14.6-11.8,17.1-14.9S45.7,13.7,45.7,13.7z"/>
		<polygon class="st1" points="30.6,9.6 32,7.2 33.4,9.6 		"/>
		<g>
			<path class="st1" d="M34.6,11.6c0.1,0,0.2,0,0.3,0.1c0.1,0.1,0.1,0.2,0.1,0.3v6c0,0.2-0.1,0.3-0.2,0.5c-0.1,0.1-0.3,0.2-0.5,0.2
				h-0.1c-0.2,0-0.4-0.1-0.5-0.3l-3.9-5.6v5.4c0,0.1,0,0.2-0.1,0.3c-0.1,0.1-0.2,0.1-0.3,0.1c-0.1,0-0.2,0-0.3-0.1
				c-0.1-0.1-0.1-0.2-0.1-0.3v-6c0-0.2,0.1-0.3,0.2-0.5c0.1-0.1,0.3-0.2,0.5-0.2h0.1c0.2,0,0.4,0.1,0.6,0.3l3.9,5.6V12
				c0-0.1,0-0.2,0.1-0.3C34.4,11.6,34.5,11.6,34.6,11.6z"/>
		</g>
		<polygon class="st1" points="33.4,54.8 32,57.2 30.6,54.8 		"/>
	</g>
</g>
<g class="st0">
	<path class="st1" d="M31.9,51.9c1,0,1.6-0.3,1.6-1c0-0.2-0.1-0.4-0.3-0.5c-0.2-0.1-0.5-0.2-0.8-0.3c-0.3-0.1-0.7-0.2-1-0.3
		c-0.4-0.1-0.7-0.2-1-0.4c-0.3-0.2-0.6-0.4-0.8-0.6c-0.2-0.3-0.3-0.6-0.3-1c0-0.4,0.1-0.7,0.2-1c0.1-0.3,0.3-0.5,0.5-0.7
		c0.5-0.4,1.2-0.6,2.1-0.6c0.7,0,1.4,0.1,2.1,0.4c0.1,0,0.2,0.1,0.3,0.2c0.1,0.1,0.1,0.2,0.1,0.3c0,0.1-0.1,0.2-0.2,0.4
		C34.2,46.9,34.1,47,34,47c-0.1,0-0.2,0-0.4-0.1c-0.5-0.1-0.9-0.2-1.5-0.2c-0.5,0-0.9,0.1-1.2,0.3c-0.3,0.2-0.4,0.4-0.4,0.7
		c0,0.3,0.1,0.5,0.3,0.6c0.2,0.1,0.5,0.2,0.8,0.3c0.3,0.1,0.7,0.2,1,0.3c0.4,0.1,0.7,0.2,1,0.4c0.7,0.4,1.1,1,1.1,1.8
		c0,0.6-0.2,1.1-0.7,1.5C33.6,52.8,32.9,53,32,53c-1,0-1.8-0.2-2.6-0.6c-0.2-0.1-0.2-0.3-0.2-0.4s0.1-0.3,0.2-0.4
		c0.1-0.1,0.2-0.2,0.3-0.2c0.1,0,0.3,0,0.4,0.1C30.7,51.7,31.3,51.9,31.9,51.9z"/>
</g>
</svg>
