<?xml version="1.0" encoding="utf-8"?>
<!-- Generator: Adobe Illustrator 19.1.0, SVG Export Plug-In . SVG Version: 6.00 Build 0)  -->
<svg version="1.1" id="Lager_1" xmlns="http://www.w3.org/2000/svg" xmlns:xlink="http://www.w3.org/1999/xlink" x="0px" y="0px"
	 width="64px" height="64px" viewBox="0 0 64 64" style="enable-background:new 0 0 64 64;" xml:space="preserve">
<style type="text/css">
	.st0{opacity:0.75;}
	.st1{fill:#FFFFFF;}
</style>
<g class="st0">
	<path class="st1" d="M46.5,13.4c-0.3-0.6-1.4-1.7-2-1.9c-0.9-0.1-0.3,0.6-0.3,1c-0.2,0.2-0.6,0.4-0.7,0.6c-0.1,0.1,0.2,0.9,0.9,0.6
		c0.7-0.3,0.3,0.3,0.7,1.3c0.5,1,1.4,1,1.8,0.7C47.3,15.2,46.8,13.9,46.5,13.4z"/>
	<path class="st1" d="M49.1,19.8C49.1,19.8,49.1,19.8,49.1,19.8C49.1,19.8,49.1,19.8,49.1,19.8z"/>
	<path class="st1" d="M57.5,23.6C57.6,23.6,57.3,23.5,57.5,23.6L57.5,23.6z"/>
	<path class="st1" d="M32,0C14.3,0,0,14.3,0,32c0,17.7,14.3,32,32,32c17.7,0,32-14.3,32-32C64,14.3,49.7,0,32,0z M20.2,56.8
		c-0.8-0.4-1.3-1.1-1.6-2.3c-0.6-3,0-4.6,2.6-6.3c1.2-0.8,1.4-1.8,2.4-2.8c0.2-0.3,0.9-1.5,1.3-1.5c0.5-0.1,2-0.4,2.2-0.9
		c0.5-0.7,1.7-3.9,2.3-4.2c0.9-0.6,2.1-2.3,1.2-3.3c-1-1.2-2.4-1.3-3.7-1.9c-1.1-0.6-1.7-3.2-2.5-4.1c-1.7-1.7-4.3-2.7-6.4-3.8
		c-1.2-0.5-1-0.6-2,0.3c-1.2,1.2-2.9-0.3-3-1.5c0-0.4-0.5-2.6-0.2-2.8c2.6-1.6-1.2-1.2-1.5-2c-0.8-2.1,1.9-3.8,3.6-4
		c2-0.2,2.4,3.1,3.2,2.8c0.4-0.2,0.4-1.8,0.4-2.1c0.2-1.1,0.5-1.3,1.6-1.7c1.3-0.5,2.3-1.1,3.7-1.3c1.6-0.5,2.9-0.2,4.1-1.2
		c0.6-0.4,1,0.2,1.5,0.3c1.1,0.2,1.4-1.6,1.4-2.3c0-0.7,0.2-1.2-0.7-1.9C29,7.3,27.4,8.1,26.5,9c-1.1,1-2.3,0.9-2-0.8
		c0.1-0.6,1.5-1.4,2-1.7C27,6.1,27.3,6.8,28,6.7c0.9-0.2,1.3,0.7,2.4,0.7c0.5-0.1,2.1-1,1.2-2.8c0.1,0,0.3,0,0.4,0
		c0.3,0,0.5,0,0.8,0c0.4,1.3-0.9,2.3-0.2,3.9c1.3,3.1,2.3,0.4,3.5-1c0.4-0.4,0.7-0.3,1.3-0.4c0.4-0.1,1-1.3,1.2-1.7
		c2.9,0.7,5.6,1.9,8.1,3.5c-1.1,0.1-1.3-0.2-1.3,1.1c0,0.5,0,1.9,0.8,2c1.2,0.1,1,1,2.1,1.1c1.1,0.1,0.4,1.1,0.8,2
		c0.5,1.5-2.8,1.9-3.5,2.1c-1.9,0.7,0.9,3.5,2.2,3.2c0.4-0.1,1.7-0.3,1.8-0.7c0,0-0.3-1.6-0.1-1.7c0.2-0.3,0.7-0.4,1.5,0
		c1.9,1.1,2.9,3.7,5.1,4.2c0.3,0.1,0.8,0,1.2,0.3c0.3,0.4,1.1,1.2,0.2,1.2c-1.3-0.3-2,0.1-3-0.7c-1.1-0.9-1.8-1.6-3.2-1.6
		c-1.3,0-2.4-0.5-3.7-0.3c-0.7,0.1-1.4,0.4-2.1,0.6c-0.7,0.2-0.8,1.4-1.5,1.5c-2.8,0.7-2.2,3.3-2.7,5.4c-0.2,0.8-0.9,3-0.1,3.7
		c1.3,1.3,2.8,3,4.7,3.3c1,0.1,3.3-0.7,4,0.4c0.3,0.6,1.1-0.4,1.3,0.1c0.5,1.6-0.6,2.6-0.6,4.1c0,2.2,1.3,2.9-0.5,4.9
		c-1.9,1.9-0.6,4.4-1.7,6.7c-0.6,1.2-0.7,2.8-1.6,3.4c-1.9,1.2-4,2.2-6.1,2.9c-3.8,1.3-7.9,1.7-11.9,1.2c-2.1-0.2-4.1-0.7-6.1-1.4
		c-0.5-0.2-1-0.4-1.5-0.5C20.9,57.1,20.5,56.9,20.2,56.8z M14.2,52.9c-0.1-0.1-0.1-0.1-0.2-0.2c-0.5-0.4-1-0.9-1.4-1.3
		c-0.5-0.5-0.9-1-1.4-1.5c0,0,0,0,0,0c-0.1-0.1-0.2-0.2-0.3-0.3c-7.4-8.9-8.5-22-2.3-32c0.9,0.9-0.6,2.6,1.1,3.7
		c0.7,0.5,1.4,0.3,1.3,1.3c-0.1,0.9,0.8,0.9,0.9,1.7c0.4,1.8,2.7,2.7,1.4,4.7c-1.3,1.8-2.4,3.8-1.4,6.1c0.3,0.8,1.1,1.7,1.7,2.3
		c1.1,1.1,1.1,0.5,1.1,1.9c0,0.6,0.8,1.3,0.7,1.7c-0.1,1.1-0.4,2.3-0.6,3.4c-0.3,4.1,0,8.1,3,11.2c-1.1-0.7-2.2-1.5-3.3-2.3
		C14.5,53.1,14.3,53,14.2,52.9z"/>
</g>
</svg>
