<?xml version="1.0" encoding="utf-8"?>
<!-- Generator: Adobe Illustrator 19.1.0, SVG Export Plug-In . SVG Version: 6.00 Build 0)  -->
<svg version="1.1" id="Lager_1" xmlns="http://www.w3.org/2000/svg" xmlns:xlink="http://www.w3.org/1999/xlink" x="0px" y="0px"
	 width="240.6px" height="80.3px" viewBox="-570 530 240.6 80.3" style="enable-background:new -570 530 240.6 80.3;"
	 xml:space="preserve">
<style type="text/css">
	.st0{fill:#5EBB8B;}
	.st1{fill-rule:evenodd;clip-rule:evenodd;fill:#5EBB8B;}
	.st2{fill-rule:evenodd;clip-rule:evenodd;fill:#31A5DF;}
</style>
<g>
	<path class="st0" d="M-465.6,538.9h1.9l-4.8,14.3h-1.8l-4.8-14.3h1.9l2.9,9.1c0.2,0.6,0.4,1.2,0.5,1.7c0.1,0.6,0.3,1.1,0.4,1.5
		c0.1-0.5,0.2-1,0.4-1.5c0.1-0.5,0.3-1.1,0.5-1.8L-465.6,538.9z"/>
	<path class="st0" d="M-456.5,553.2l-0.4-1.5h-0.1c-0.2,0.3-0.4,0.5-0.6,0.8c-0.2,0.2-0.4,0.4-0.7,0.5s-0.5,0.2-0.8,0.3
		c-0.3,0.1-0.7,0.1-1.1,0.1c-0.4,0-0.9-0.1-1.2-0.2s-0.7-0.3-1-0.6s-0.5-0.6-0.6-1s-0.2-0.9-0.2-1.4c0-1.1,0.4-1.9,1.1-2.5
		c0.8-0.6,1.9-0.9,3.4-0.9l1.8-0.1V546c0-0.4,0-0.8-0.1-1.1s-0.2-0.5-0.4-0.7c-0.2-0.2-0.4-0.3-0.7-0.4s-0.6-0.1-0.9-0.1
		c-0.5,0-1,0.1-1.5,0.2s-0.9,0.3-1.3,0.6l-0.6-1.3c0.5-0.3,1-0.5,1.6-0.7c0.6-0.2,1.2-0.3,1.9-0.3c0.7,0,1.2,0.1,1.7,0.2
		c0.5,0.1,0.9,0.3,1.2,0.6c0.3,0.3,0.6,0.7,0.7,1.1s0.2,1,0.2,1.6v7.3H-456.5z M-459.8,551.9c0.4,0,0.8-0.1,1.1-0.2
		c0.3-0.1,0.6-0.3,0.9-0.6c0.2-0.2,0.4-0.6,0.6-0.9s0.2-0.8,0.2-1.3v-1l-1.4,0.1c-0.6,0-1.1,0.1-1.5,0.2c-0.4,0.1-0.7,0.2-1,0.4
		s-0.4,0.4-0.5,0.7s-0.2,0.6-0.2,0.9c0,0.6,0.2,1,0.5,1.3C-460.7,551.8-460.3,551.9-459.8,551.9z"/>
	<path class="st0" d="M-450.2,553.2h-1.8V538h1.8V553.2z"/>
	<path class="st0" d="M-445,553.2h-1.8V538h1.8V553.2z"/>
	<path class="st0" d="M-437.4,553.4c-0.7,0-1.4-0.1-2-0.4c-0.6-0.2-1.1-0.6-1.5-1.1c-0.4-0.5-0.8-1-1-1.7s-0.4-1.5-0.4-2.3
		c0-0.9,0.1-1.7,0.3-2.4c0.2-0.7,0.5-1.3,0.9-1.8c0.4-0.5,0.9-0.9,1.4-1.1s1.1-0.4,1.8-0.4c0.6,0,1.2,0.1,1.7,0.3
		c0.5,0.2,1,0.6,1.3,1s0.6,0.9,0.8,1.5c0.2,0.6,0.3,1.2,0.3,2v1.1h-6.8c0,1.3,0.3,2.2,0.8,2.8c0.5,0.6,1.2,0.9,2.2,0.9
		c0.3,0,0.6,0,0.9,0c0.3,0,0.6-0.1,0.8-0.1c0.3-0.1,0.5-0.1,0.8-0.2c0.2-0.1,0.5-0.2,0.8-0.3v1.6c-0.3,0.1-0.5,0.2-0.8,0.3
		c-0.3,0.1-0.5,0.2-0.8,0.2s-0.5,0.1-0.8,0.1C-436.7,553.4-437.1,553.4-437.4,553.4z M-437.8,543.7c-0.7,0-1.3,0.3-1.8,0.8
		s-0.7,1.2-0.8,2.2h4.8c0-0.4,0-0.8-0.1-1.2c-0.1-0.4-0.2-0.7-0.4-0.9c-0.2-0.3-0.4-0.5-0.7-0.6
		C-437.1,543.8-437.4,543.7-437.8,543.7z"/>
	<path class="st0" d="M-424.2,553.2v-6.9c0-0.8-0.2-1.5-0.5-1.9c-0.3-0.4-0.9-0.6-1.6-0.6c-0.5,0-1,0.1-1.3,0.3
		c-0.4,0.2-0.6,0.4-0.9,0.8s-0.4,0.7-0.5,1.2c-0.1,0.5-0.1,1-0.1,1.7v5.6h-1.8v-10.7h1.4l0.3,1.4h0.1c0.2-0.3,0.4-0.5,0.6-0.7
		s0.5-0.4,0.7-0.5s0.5-0.2,0.8-0.3c0.3-0.1,0.6-0.1,0.9-0.1c1.2,0,2.1,0.3,2.7,0.9c0.6,0.6,0.9,1.6,0.9,3v7H-424.2z"/>
	<path class="st0" d="M-415.9,551.9c0.1,0,0.2,0,0.4,0c0.1,0,0.3,0,0.4,0s0.3,0,0.4-0.1c0.1,0,0.2,0,0.3-0.1v1.3
		c-0.1,0-0.2,0.1-0.3,0.1s-0.3,0.1-0.4,0.1s-0.3,0.1-0.5,0.1c-0.2,0-0.3,0-0.5,0c-0.4,0-0.8-0.1-1.1-0.2c-0.3-0.1-0.6-0.3-0.9-0.5
		s-0.4-0.6-0.6-1c-0.1-0.4-0.2-1-0.2-1.6v-6.2h-1.5V543l1.5-0.8l0.8-2.2h1v2.5h2.7v1.3h-2.7v6.2c0,0.6,0.1,1.1,0.3,1.4
		C-416.7,551.8-416.4,551.9-415.9,551.9z"/>
	<path class="st0" d="M-405.4,553.2l-0.3-1.4h-0.1c-0.2,0.3-0.4,0.5-0.6,0.7s-0.5,0.4-0.7,0.5c-0.3,0.1-0.5,0.2-0.8,0.3
		c-0.3,0.1-0.6,0.1-0.9,0.1c-0.6,0-1.1-0.1-1.6-0.2c-0.4-0.1-0.8-0.4-1.1-0.7c-0.3-0.3-0.5-0.7-0.7-1.2c-0.2-0.5-0.2-1.1-0.2-1.8v-7
		h1.8v6.9c0,0.8,0.2,1.5,0.5,1.9c0.3,0.4,0.9,0.6,1.6,0.6c0.5,0,1-0.1,1.3-0.3c0.4-0.2,0.6-0.4,0.9-0.7c0.2-0.3,0.4-0.7,0.5-1.2
		c0.1-0.5,0.1-1,0.1-1.7v-5.6h1.8v10.7H-405.4z"/>
	<path class="st0" d="M-393.9,553.2v-6.9c0-0.8-0.2-1.5-0.5-1.9c-0.3-0.4-0.9-0.6-1.6-0.6c-0.5,0-1,0.1-1.3,0.3
		c-0.4,0.2-0.6,0.4-0.9,0.8s-0.4,0.7-0.5,1.2c-0.1,0.5-0.1,1-0.1,1.7v5.6h-1.8v-10.7h1.4l0.3,1.4h0.1c0.2-0.3,0.4-0.5,0.6-0.7
		s0.5-0.4,0.7-0.5s0.5-0.2,0.8-0.3c0.3-0.1,0.6-0.1,0.9-0.1c1.2,0,2.1,0.3,2.7,0.9c0.6,0.6,0.9,1.6,0.9,3v7H-393.9z"/>
	<path class="st0" d="M-382.8,553.2l-0.4-1.5h-0.1c-0.2,0.3-0.4,0.5-0.6,0.8c-0.2,0.2-0.4,0.4-0.7,0.5s-0.5,0.2-0.8,0.3
		c-0.3,0.1-0.7,0.1-1.1,0.1c-0.4,0-0.9-0.1-1.2-0.2s-0.7-0.3-1-0.6s-0.5-0.6-0.6-1s-0.2-0.9-0.2-1.4c0-1.1,0.4-1.9,1.1-2.5
		c0.8-0.6,1.9-0.9,3.4-0.9l1.8-0.1V546c0-0.4,0-0.8-0.1-1.1s-0.2-0.5-0.4-0.7c-0.2-0.2-0.4-0.3-0.7-0.4s-0.6-0.1-0.9-0.1
		c-0.5,0-1,0.1-1.5,0.2s-0.9,0.3-1.3,0.6l-0.6-1.3c0.5-0.3,1-0.5,1.6-0.7c0.6-0.2,1.2-0.3,1.9-0.3c0.7,0,1.2,0.1,1.7,0.2
		c0.5,0.1,0.9,0.3,1.2,0.6c0.3,0.3,0.6,0.7,0.7,1.1s0.2,1,0.2,1.6v7.3H-382.8z M-386,551.9c0.4,0,0.8-0.1,1.1-0.2
		c0.3-0.1,0.6-0.3,0.9-0.6c0.2-0.2,0.4-0.6,0.6-0.9s0.2-0.8,0.2-1.3v-1l-1.4,0.1c-0.6,0-1.1,0.1-1.5,0.2c-0.4,0.1-0.7,0.2-1,0.4
		s-0.4,0.4-0.5,0.7s-0.2,0.6-0.2,0.9c0,0.6,0.2,1,0.5,1.3C-387,551.8-386.5,551.9-386,551.9z"/>
	<path class="st0" d="M-469.1,577.2h-5.2v-1l1.7-0.4v-11.5l-1.7-0.4v-1h5.2v1l-1.7,0.4v11.5l1.7,0.4V577.2z"/>
	<path class="st0" d="M-459.9,577.2v-6.9c0-0.8-0.2-1.5-0.5-1.9c-0.3-0.4-0.9-0.6-1.6-0.6c-0.5,0-1,0.1-1.3,0.3
		c-0.4,0.2-0.6,0.4-0.9,0.8s-0.4,0.7-0.5,1.2c-0.1,0.5-0.1,1-0.1,1.7v5.6h-1.8v-10.7h1.4l0.3,1.4h0.1c0.2-0.3,0.4-0.5,0.6-0.7
		s0.5-0.4,0.7-0.5s0.5-0.2,0.8-0.3c0.3-0.1,0.6-0.1,0.9-0.1c1.2,0,2.1,0.3,2.7,0.9c0.6,0.6,0.9,1.6,0.9,3v7H-459.9z"/>
	<path class="st0" d="M-451.6,575.9c0.1,0,0.2,0,0.4,0c0.1,0,0.3,0,0.4,0s0.3,0,0.4-0.1c0.1,0,0.2,0,0.3-0.1v1.3
		c-0.1,0-0.2,0.1-0.3,0.1s-0.3,0.1-0.4,0.1s-0.3,0.1-0.5,0.1c-0.2,0-0.3,0-0.5,0c-0.4,0-0.8-0.1-1.1-0.2c-0.3-0.1-0.6-0.3-0.9-0.5
		s-0.4-0.6-0.6-1c-0.1-0.4-0.2-1-0.2-1.6v-6.2h-1.5V567l1.5-0.8l0.8-2.2h1v2.5h2.7v1.3h-2.7v6.2c0,0.6,0.1,1.1,0.3,1.4
		C-452.4,575.8-452,575.9-451.6,575.9z"/>
	<path class="st0" d="M-443.8,577.4c-0.7,0-1.4-0.1-2-0.4c-0.6-0.2-1.1-0.6-1.5-1.1c-0.4-0.5-0.8-1-1-1.7s-0.4-1.5-0.4-2.3
		c0-0.9,0.1-1.7,0.3-2.4c0.2-0.7,0.5-1.3,0.9-1.8c0.4-0.5,0.9-0.9,1.4-1.1s1.1-0.4,1.8-0.4c0.6,0,1.2,0.1,1.7,0.3
		c0.5,0.2,1,0.6,1.3,1s0.6,0.9,0.8,1.5c0.2,0.6,0.3,1.2,0.3,2v1.1h-6.8c0,1.3,0.3,2.2,0.8,2.8c0.5,0.6,1.2,0.9,2.2,0.9
		c0.3,0,0.6,0,0.9,0c0.3,0,0.6-0.1,0.8-0.1c0.3-0.1,0.5-0.1,0.8-0.2c0.2-0.1,0.5-0.2,0.8-0.3v1.6c-0.3,0.1-0.5,0.2-0.8,0.3
		c-0.3,0.1-0.5,0.2-0.8,0.2s-0.5,0.1-0.8,0.1C-443.1,577.4-443.5,577.4-443.8,577.4z M-444.2,567.7c-0.7,0-1.3,0.3-1.8,0.8
		s-0.7,1.2-0.8,2.2h4.8c0-0.4,0-0.8-0.1-1.2c-0.1-0.4-0.2-0.7-0.4-0.9c-0.2-0.3-0.4-0.5-0.7-0.6
		C-443.5,567.8-443.8,567.7-444.2,567.7z"/>
	<path class="st0" d="M-432.7,566.3c0.2,0,0.4,0,0.6,0c0.2,0,0.4,0,0.6,0.1l-0.2,1.6c-0.2,0-0.4-0.1-0.6-0.1c-0.2,0-0.4,0-0.5,0
		c-0.4,0-0.8,0.1-1.1,0.2s-0.6,0.4-0.9,0.7c-0.2,0.3-0.4,0.7-0.6,1.1c-0.1,0.4-0.2,0.9-0.2,1.4v5.8h-1.8v-10.7h1.4l0.2,2h0.1
		c0.2-0.3,0.3-0.5,0.5-0.8c0.2-0.3,0.4-0.5,0.6-0.7c0.2-0.2,0.5-0.4,0.8-0.5C-433.4,566.3-433,566.3-432.7,566.3z"/>
	<path class="st0" d="M-422.6,577.2v-6.9c0-0.8-0.2-1.5-0.5-1.9c-0.3-0.4-0.9-0.6-1.6-0.6c-0.5,0-1,0.1-1.3,0.3
		c-0.4,0.2-0.6,0.4-0.9,0.8s-0.4,0.7-0.5,1.2c-0.1,0.5-0.1,1-0.1,1.7v5.6h-1.8v-10.7h1.4l0.3,1.4h0.1c0.2-0.3,0.4-0.5,0.6-0.7
		s0.5-0.4,0.7-0.5s0.5-0.2,0.8-0.3c0.3-0.1,0.6-0.1,0.9-0.1c1.2,0,2.1,0.3,2.7,0.9c0.6,0.6,0.9,1.6,0.9,3v7H-422.6z"/>
	<path class="st0" d="M-411.5,577.2l-0.4-1.5h-0.1c-0.2,0.3-0.4,0.5-0.6,0.8c-0.2,0.2-0.4,0.4-0.7,0.5s-0.5,0.2-0.8,0.3
		c-0.3,0.1-0.7,0.1-1.1,0.1c-0.4,0-0.9-0.1-1.2-0.2s-0.7-0.3-1-0.6s-0.5-0.6-0.6-1s-0.2-0.9-0.2-1.4c0-1.1,0.4-1.9,1.1-2.5
		c0.8-0.6,1.9-0.9,3.4-0.9l1.8-0.1V570c0-0.4,0-0.8-0.1-1.1s-0.2-0.5-0.4-0.7c-0.2-0.2-0.4-0.3-0.7-0.4s-0.6-0.1-0.9-0.1
		c-0.5,0-1,0.1-1.5,0.2s-0.9,0.3-1.3,0.6l-0.6-1.3c0.5-0.3,1-0.5,1.6-0.7c0.6-0.2,1.2-0.3,1.9-0.3c0.7,0,1.2,0.1,1.7,0.2
		c0.5,0.1,0.9,0.3,1.2,0.6c0.3,0.3,0.6,0.7,0.7,1.1s0.2,1,0.2,1.6v7.3H-411.5z M-414.8,575.9c0.4,0,0.8-0.1,1.1-0.2
		c0.3-0.1,0.6-0.3,0.9-0.6c0.2-0.2,0.4-0.6,0.6-0.9s0.2-0.8,0.2-1.3v-1l-1.4,0.1c-0.6,0-1.1,0.1-1.5,0.2c-0.4,0.1-0.7,0.2-1,0.4
		s-0.4,0.4-0.5,0.7s-0.2,0.6-0.2,0.9c0,0.6,0.2,1,0.5,1.3C-415.7,575.8-415.3,575.9-414.8,575.9z"/>
	<path class="st0" d="M-403.7,575.9c0.1,0,0.2,0,0.4,0c0.1,0,0.3,0,0.4,0s0.3,0,0.4-0.1c0.1,0,0.2,0,0.3-0.1v1.3
		c-0.1,0-0.2,0.1-0.3,0.1s-0.3,0.1-0.4,0.1s-0.3,0.1-0.5,0.1c-0.2,0-0.3,0-0.5,0c-0.4,0-0.8-0.1-1.1-0.2c-0.3-0.1-0.6-0.3-0.9-0.5
		s-0.4-0.6-0.6-1c-0.1-0.4-0.2-1-0.2-1.6v-6.2h-1.5V567l1.5-0.8l0.8-2.2h1v2.5h2.7v1.3h-2.7v6.2c0,0.6,0.1,1.1,0.3,1.4
		C-404.5,575.8-404.2,575.9-403.7,575.9z"/>
	<path class="st0" d="M-400.3,563.6c0-0.4,0.1-0.7,0.3-0.8s0.4-0.3,0.7-0.3c0.1,0,0.3,0,0.4,0.1c0.1,0,0.2,0.1,0.3,0.2
		c0.1,0.1,0.2,0.2,0.2,0.3c0.1,0.1,0.1,0.3,0.1,0.5c0,0.4-0.1,0.7-0.3,0.8s-0.5,0.3-0.7,0.3c-0.3,0-0.5-0.1-0.7-0.3
		C-400.2,564.2-400.3,563.9-400.3,563.6z M-398.4,577.2h-1.8v-10.7h1.8V577.2z"/>
	<path class="st0" d="M-386.3,571.8c0,0.9-0.1,1.7-0.3,2.4s-0.5,1.3-0.9,1.7c-0.4,0.5-0.9,0.8-1.5,1.1c-0.6,0.2-1.2,0.4-2,0.4
		c-0.7,0-1.3-0.1-1.9-0.4c-0.6-0.2-1.1-0.6-1.5-1.1c-0.4-0.5-0.7-1.1-1-1.7s-0.3-1.5-0.3-2.4c0-0.9,0.1-1.7,0.3-2.4
		c0.2-0.7,0.5-1.3,0.9-1.7c0.4-0.5,0.9-0.8,1.5-1.1s1.2-0.4,2-0.4c0.7,0,1.3,0.1,1.9,0.4s1.1,0.6,1.5,1.1c0.4,0.5,0.7,1.1,1,1.7
		C-386.4,570.1-386.3,570.9-386.3,571.8z M-393.8,571.8c0,1.4,0.2,2.4,0.7,3.1c0.4,0.7,1.2,1,2.2,1s1.7-0.3,2.2-1
		c0.4-0.7,0.7-1.7,0.7-3.1c0-1.4-0.2-2.4-0.7-3.1s-1.2-1-2.2-1s-1.7,0.3-2.2,1S-393.8,570.4-393.8,571.8z"/>
	<path class="st0" d="M-376.8,577.2v-6.9c0-0.8-0.2-1.5-0.5-1.9c-0.3-0.4-0.9-0.6-1.6-0.6c-0.5,0-1,0.1-1.3,0.3
		c-0.4,0.2-0.6,0.4-0.9,0.8s-0.4,0.7-0.5,1.2c-0.1,0.5-0.1,1-0.1,1.7v5.6h-1.8v-10.7h1.4l0.3,1.4h0.1c0.2-0.3,0.4-0.5,0.6-0.7
		s0.5-0.4,0.7-0.5s0.5-0.2,0.8-0.3c0.3-0.1,0.6-0.1,0.9-0.1c1.2,0,2.1,0.3,2.7,0.9c0.6,0.6,0.9,1.6,0.9,3v7H-376.8z"/>
	<path class="st0" d="M-367.4,577.4c-0.7,0-1.4-0.1-2-0.4c-0.6-0.2-1.1-0.6-1.5-1.1c-0.4-0.5-0.8-1-1-1.7s-0.4-1.5-0.4-2.3
		c0-0.9,0.1-1.7,0.3-2.4c0.2-0.7,0.5-1.3,0.9-1.8c0.4-0.5,0.9-0.9,1.4-1.1s1.1-0.4,1.8-0.4c0.6,0,1.2,0.1,1.7,0.3
		c0.5,0.2,1,0.6,1.3,1s0.6,0.9,0.8,1.5c0.2,0.6,0.3,1.2,0.3,2v1.1h-6.8c0,1.3,0.3,2.2,0.8,2.8c0.5,0.6,1.2,0.9,2.2,0.9
		c0.3,0,0.6,0,0.9,0c0.3,0,0.6-0.1,0.8-0.1c0.3-0.1,0.5-0.1,0.8-0.2c0.2-0.1,0.5-0.2,0.8-0.3v1.6c-0.3,0.1-0.5,0.2-0.8,0.3
		c-0.3,0.1-0.5,0.2-0.8,0.2s-0.5,0.1-0.8,0.1C-366.8,577.4-367.1,577.4-367.4,577.4z M-367.9,567.7c-0.7,0-1.3,0.3-1.8,0.8
		s-0.7,1.2-0.8,2.2h4.8c0-0.4,0-0.8-0.1-1.2c-0.1-0.4-0.2-0.7-0.4-0.9c-0.2-0.3-0.4-0.5-0.7-0.6
		C-367.1,567.8-367.5,567.7-367.9,567.7z"/>
	<path class="st0" d="M-359.2,577.2h-1.8V562h1.8V577.2z"/>
	<path class="st0" d="M-354,577.2h-1.8V562h1.8V577.2z"/>
	<path class="st0" d="M-344.6,577.2l-0.4-1.5h-0.1c-0.2,0.3-0.4,0.5-0.6,0.8c-0.2,0.2-0.4,0.4-0.7,0.5s-0.5,0.2-0.8,0.3
		c-0.3,0.1-0.7,0.1-1.1,0.1c-0.4,0-0.9-0.1-1.2-0.2s-0.7-0.3-1-0.6s-0.5-0.6-0.6-1s-0.2-0.9-0.2-1.4c0-1.1,0.4-1.9,1.1-2.5
		c0.8-0.6,1.9-0.9,3.4-0.9l1.8-0.1V570c0-0.4,0-0.8-0.1-1.1s-0.2-0.5-0.4-0.7c-0.2-0.2-0.4-0.3-0.7-0.4s-0.6-0.1-0.9-0.1
		c-0.5,0-1,0.1-1.5,0.2s-0.9,0.3-1.3,0.6l-0.6-1.3c0.5-0.3,1-0.5,1.6-0.7c0.6-0.2,1.2-0.3,1.9-0.3c0.7,0,1.2,0.1,1.7,0.2
		c0.5,0.1,0.9,0.3,1.2,0.6c0.3,0.3,0.6,0.7,0.7,1.1s0.2,1,0.2,1.6v7.3H-344.6z M-347.8,575.9c0.4,0,0.8-0.1,1.1-0.2
		c0.3-0.1,0.6-0.3,0.9-0.6c0.2-0.2,0.4-0.6,0.6-0.9s0.2-0.8,0.2-1.3v-1l-1.4,0.1c-0.6,0-1.1,0.1-1.5,0.2c-0.4,0.1-0.7,0.2-1,0.4
		s-0.4,0.4-0.5,0.7s-0.2,0.6-0.2,0.9c0,0.6,0.2,1,0.5,1.3C-348.8,575.8-348.3,575.9-347.8,575.9z"/>
	<path class="st0" d="M-467.2,601.2l-4.3-12.5h-0.1c0,0.5,0.1,1,0.1,1.4c0,0.4,0,0.8,0.1,1.3c0,0.5,0,0.9,0,1.2v8.5h-1.7v-14.3h2.7
		l4,11.6h0.1l4-11.6h2.7v14.3h-1.8v-8.7c0-0.3,0-0.7,0-1.2c0-0.4,0-0.9,0-1.2c0-0.5,0-0.9,0.1-1.4h-0.1l-4.4,12.5H-467.2z"/>
	<path class="st0" d="M-447.2,595.8c0,0.9-0.1,1.7-0.3,2.4s-0.5,1.3-0.9,1.7c-0.4,0.5-0.9,0.8-1.5,1.1c-0.6,0.2-1.2,0.4-2,0.4
		c-0.7,0-1.3-0.1-1.9-0.4c-0.6-0.2-1.1-0.6-1.5-1.1c-0.4-0.5-0.7-1.1-1-1.7s-0.3-1.5-0.3-2.4c0-0.9,0.1-1.7,0.3-2.4
		c0.2-0.7,0.5-1.3,0.9-1.7c0.4-0.5,0.9-0.8,1.5-1.1s1.2-0.4,2-0.4c0.7,0,1.3,0.1,1.9,0.4s1.1,0.6,1.5,1.1c0.4,0.5,0.7,1.1,1,1.7
		C-447.3,594.1-447.2,594.9-447.2,595.8z M-454.7,595.8c0,1.4,0.2,2.4,0.7,3.1c0.4,0.7,1.2,1,2.2,1s1.7-0.3,2.2-1
		c0.4-0.7,0.7-1.7,0.7-3.1c0-1.4-0.2-2.4-0.7-3.1s-1.2-1-2.2-1s-1.7,0.3-2.2,1S-454.7,594.4-454.7,595.8z"/>
	<path class="st0" d="M-437.7,601.2v-6.9c0-0.8-0.2-1.5-0.5-1.9c-0.3-0.4-0.9-0.6-1.6-0.6c-0.5,0-1,0.1-1.3,0.3
		c-0.4,0.2-0.6,0.4-0.9,0.8s-0.4,0.7-0.5,1.2c-0.1,0.5-0.1,1-0.1,1.7v5.6h-1.8v-10.7h1.4l0.3,1.4h0.1c0.2-0.3,0.4-0.5,0.6-0.7
		s0.5-0.4,0.7-0.5s0.5-0.2,0.8-0.3c0.3-0.1,0.6-0.1,0.9-0.1c1.2,0,2.1,0.3,2.7,0.9c0.6,0.6,0.9,1.6,0.9,3v7H-437.7z"/>
	<path class="st0" d="M-429.4,599.9c0.1,0,0.2,0,0.4,0c0.1,0,0.3,0,0.4,0s0.3,0,0.4-0.1c0.1,0,0.2,0,0.3-0.1v1.3
		c-0.1,0-0.2,0.1-0.3,0.1s-0.3,0.1-0.4,0.1s-0.3,0.1-0.5,0.1c-0.2,0-0.3,0-0.5,0c-0.4,0-0.8-0.1-1.1-0.2c-0.3-0.1-0.6-0.3-0.9-0.5
		s-0.4-0.6-0.6-1c-0.1-0.4-0.2-1-0.2-1.6v-6.2h-1.5V591l1.5-0.8l0.8-2.2h1v2.5h2.7v1.3h-2.7v6.2c0,0.6,0.1,1.1,0.3,1.4
		C-430.2,599.8-429.9,599.9-429.4,599.9z"/>
	<path class="st0" d="M-421.6,601.4c-0.7,0-1.4-0.1-2-0.4c-0.6-0.2-1.1-0.6-1.5-1.1c-0.4-0.5-0.8-1-1-1.7s-0.4-1.5-0.4-2.3
		c0-0.9,0.1-1.7,0.3-2.4c0.2-0.7,0.5-1.3,0.9-1.8c0.4-0.5,0.9-0.9,1.4-1.1s1.1-0.4,1.8-0.4c0.6,0,1.2,0.1,1.7,0.3
		c0.5,0.2,1,0.6,1.3,1s0.6,0.9,0.8,1.5c0.2,0.6,0.3,1.2,0.3,2v1.1h-6.8c0,1.3,0.3,2.2,0.8,2.8c0.5,0.6,1.2,0.9,2.2,0.9
		c0.3,0,0.6,0,0.9,0c0.3,0,0.6-0.1,0.8-0.1c0.3-0.1,0.5-0.1,0.8-0.2c0.2-0.1,0.5-0.2,0.8-0.3v1.6c-0.3,0.1-0.5,0.2-0.8,0.3
		c-0.3,0.1-0.5,0.2-0.8,0.2s-0.5,0.1-0.8,0.1C-421,601.4-421.3,601.4-421.6,601.4z M-422.1,591.7c-0.7,0-1.3,0.3-1.8,0.8
		s-0.7,1.2-0.8,2.2h4.8c0-0.4,0-0.8-0.1-1.2c-0.1-0.4-0.2-0.7-0.4-0.9c-0.2-0.3-0.4-0.5-0.7-0.6
		C-421.3,591.8-421.7,591.7-422.1,591.7z"/>
	<path class="st0" d="M-408.7,598.2c0,0.5-0.1,1-0.3,1.4s-0.5,0.7-0.8,1s-0.8,0.5-1.3,0.6c-0.5,0.1-1.1,0.2-1.7,0.2
		c-0.7,0-1.3-0.1-1.8-0.2c-0.5-0.1-1-0.3-1.3-0.5v-1.6c0.2,0.1,0.4,0.2,0.7,0.3c0.2,0.1,0.5,0.2,0.8,0.3s0.6,0.1,0.8,0.2
		s0.6,0.1,0.9,0.1c0.4,0,0.8,0,1.1-0.1c0.3-0.1,0.5-0.2,0.7-0.3c0.2-0.1,0.3-0.3,0.4-0.5c0.1-0.2,0.1-0.4,0.1-0.6
		c0-0.2,0-0.4-0.1-0.5c-0.1-0.2-0.2-0.3-0.4-0.5c-0.2-0.2-0.4-0.3-0.7-0.5c-0.3-0.2-0.7-0.3-1.2-0.5c-0.5-0.2-0.9-0.4-1.3-0.6
		s-0.7-0.4-1-0.7c-0.3-0.2-0.5-0.5-0.6-0.8c-0.1-0.3-0.2-0.7-0.2-1.1c0-0.5,0.1-0.9,0.3-1.2c0.2-0.4,0.4-0.7,0.8-0.9
		c0.3-0.2,0.7-0.4,1.2-0.5c0.5-0.1,1-0.2,1.5-0.2c0.6,0,1.2,0.1,1.7,0.2s1,0.3,1.5,0.5l-0.6,1.4c-0.4-0.2-0.9-0.4-1.3-0.5
		c-0.4-0.1-0.9-0.2-1.4-0.2c-0.7,0-1.2,0.1-1.5,0.3c-0.3,0.2-0.5,0.5-0.5,0.9c0,0.2,0,0.4,0.1,0.6c0.1,0.2,0.2,0.3,0.4,0.5
		c0.2,0.2,0.4,0.3,0.7,0.5c0.3,0.2,0.7,0.3,1.1,0.5c0.5,0.2,0.9,0.4,1.3,0.6s0.7,0.4,0.9,0.7s0.5,0.5,0.6,0.8
		S-408.7,597.8-408.7,598.2z"/>
	<path class="st0" d="M-399.7,598.2c0,0.5-0.1,1-0.3,1.4s-0.5,0.7-0.8,1s-0.8,0.5-1.3,0.6c-0.5,0.1-1.1,0.2-1.7,0.2
		c-0.7,0-1.3-0.1-1.8-0.2c-0.5-0.1-1-0.3-1.3-0.5v-1.6c0.2,0.1,0.4,0.2,0.7,0.3c0.2,0.1,0.5,0.2,0.8,0.3s0.6,0.1,0.8,0.2
		s0.6,0.1,0.9,0.1c0.4,0,0.8,0,1.1-0.1c0.3-0.1,0.5-0.2,0.7-0.3c0.2-0.1,0.3-0.3,0.4-0.5c0.1-0.2,0.1-0.4,0.1-0.6
		c0-0.2,0-0.4-0.1-0.5c-0.1-0.2-0.2-0.3-0.4-0.5c-0.2-0.2-0.4-0.3-0.7-0.5c-0.3-0.2-0.7-0.3-1.2-0.5c-0.5-0.2-0.9-0.4-1.3-0.6
		s-0.7-0.4-1-0.7c-0.3-0.2-0.5-0.5-0.6-0.8c-0.1-0.3-0.2-0.7-0.2-1.1c0-0.5,0.1-0.9,0.3-1.2c0.2-0.4,0.4-0.7,0.8-0.9
		c0.3-0.2,0.7-0.4,1.2-0.5c0.5-0.1,1-0.2,1.5-0.2c0.6,0,1.2,0.1,1.7,0.2s1,0.3,1.5,0.5l-0.6,1.4c-0.4-0.2-0.9-0.4-1.3-0.5
		c-0.4-0.1-0.9-0.2-1.4-0.2c-0.7,0-1.2,0.1-1.5,0.3c-0.3,0.2-0.5,0.5-0.5,0.9c0,0.2,0,0.4,0.1,0.6c0.1,0.2,0.2,0.3,0.4,0.5
		c0.2,0.2,0.4,0.3,0.7,0.5c0.3,0.2,0.7,0.3,1.1,0.5c0.5,0.2,0.9,0.4,1.3,0.6s0.7,0.4,0.9,0.7s0.5,0.5,0.6,0.8
		S-399.7,597.8-399.7,598.2z"/>
	<path class="st0" d="M-388.4,595.8c0,0.9-0.1,1.7-0.3,2.4s-0.5,1.3-0.9,1.7c-0.4,0.5-0.9,0.8-1.5,1.1c-0.6,0.2-1.2,0.4-2,0.4
		c-0.7,0-1.3-0.1-1.9-0.4c-0.6-0.2-1.1-0.6-1.5-1.1c-0.4-0.5-0.7-1.1-1-1.7s-0.3-1.5-0.3-2.4c0-0.9,0.1-1.7,0.3-2.4
		c0.2-0.7,0.5-1.3,0.9-1.7c0.4-0.5,0.9-0.8,1.5-1.1s1.2-0.4,2-0.4c0.7,0,1.3,0.1,1.9,0.4s1.1,0.6,1.5,1.1c0.4,0.5,0.7,1.1,1,1.7
		C-388.5,594.1-388.4,594.9-388.4,595.8z M-395.9,595.8c0,1.4,0.2,2.4,0.7,3.1c0.4,0.7,1.2,1,2.2,1s1.7-0.3,2.2-1
		c0.4-0.7,0.7-1.7,0.7-3.1c0-1.4-0.2-2.4-0.7-3.1s-1.2-1-2.2-1s-1.7,0.3-2.2,1S-395.9,594.4-395.9,595.8z"/>
	<path class="st0" d="M-380.9,590.3c0.2,0,0.4,0,0.6,0c0.2,0,0.4,0,0.6,0.1l-0.2,1.6c-0.2,0-0.4-0.1-0.6-0.1c-0.2,0-0.4,0-0.5,0
		c-0.4,0-0.8,0.1-1.1,0.2s-0.6,0.4-0.9,0.7c-0.2,0.3-0.4,0.7-0.6,1.1c-0.1,0.4-0.2,0.9-0.2,1.4v5.8h-1.8v-10.7h1.4l0.2,2h0.1
		c0.2-0.3,0.3-0.5,0.5-0.8c0.2-0.3,0.4-0.5,0.6-0.7c0.2-0.2,0.5-0.4,0.8-0.5C-381.6,590.3-381.3,590.3-380.9,590.3z"/>
	<path class="st0" d="M-377.7,587.6c0-0.4,0.1-0.7,0.3-0.8s0.4-0.3,0.7-0.3c0.1,0,0.3,0,0.4,0.1c0.1,0,0.2,0.1,0.3,0.2
		c0.1,0.1,0.2,0.2,0.2,0.3c0.1,0.1,0.1,0.3,0.1,0.5c0,0.4-0.1,0.7-0.3,0.8s-0.5,0.3-0.7,0.3c-0.3,0-0.5-0.1-0.7-0.3
		C-377.6,588.2-377.7,587.9-377.7,587.6z M-375.8,601.2h-1.8v-10.7h1.8V601.2z"/>
	<path class="st0" d="M-366,598.2c0,0.5-0.1,1-0.3,1.4s-0.5,0.7-0.8,1s-0.8,0.5-1.3,0.6c-0.5,0.1-1.1,0.2-1.7,0.2
		c-0.7,0-1.3-0.1-1.8-0.2c-0.5-0.1-1-0.3-1.3-0.5v-1.6c0.2,0.1,0.4,0.2,0.7,0.3c0.2,0.1,0.5,0.2,0.8,0.3s0.6,0.1,0.8,0.2
		s0.6,0.1,0.9,0.1c0.4,0,0.8,0,1.1-0.1c0.3-0.1,0.5-0.2,0.7-0.3c0.2-0.1,0.3-0.3,0.4-0.5c0.1-0.2,0.1-0.4,0.1-0.6
		c0-0.2,0-0.4-0.1-0.5c-0.1-0.2-0.2-0.3-0.4-0.5c-0.2-0.2-0.4-0.3-0.7-0.5c-0.3-0.2-0.7-0.3-1.2-0.5c-0.5-0.2-0.9-0.4-1.3-0.6
		s-0.7-0.4-1-0.7c-0.3-0.2-0.5-0.5-0.6-0.8c-0.1-0.3-0.2-0.7-0.2-1.1c0-0.5,0.1-0.9,0.3-1.2c0.2-0.4,0.4-0.7,0.8-0.9
		c0.3-0.2,0.7-0.4,1.2-0.5c0.5-0.1,1-0.2,1.5-0.2c0.6,0,1.2,0.1,1.7,0.2s1,0.3,1.5,0.5l-0.6,1.4c-0.4-0.2-0.9-0.4-1.3-0.5
		c-0.4-0.1-0.9-0.2-1.4-0.2c-0.7,0-1.2,0.1-1.5,0.3c-0.3,0.2-0.5,0.5-0.5,0.9c0,0.2,0,0.4,0.1,0.6c0.1,0.2,0.2,0.3,0.4,0.5
		c0.2,0.2,0.4,0.3,0.7,0.5c0.3,0.2,0.7,0.3,1.1,0.5c0.5,0.2,0.9,0.4,1.3,0.6s0.7,0.4,0.9,0.7s0.5,0.5,0.6,0.8S-366,597.8-366,598.2z
		"/>
	<path class="st0" d="M-361.7,595.6l1.3-1.7l2.9-3.5h2.1l-3.9,4.6l4.2,6.1h-2l-3.3-4.9l-1.1,0.8v4.1h-1.8V586h1.8v7L-361.7,595.6
		L-361.7,595.6z"/>
	<path class="st0" d="M-344.7,595.8c0,0.9-0.1,1.7-0.3,2.4s-0.5,1.3-0.9,1.7c-0.4,0.5-0.9,0.8-1.5,1.1c-0.6,0.2-1.2,0.4-2,0.4
		c-0.7,0-1.3-0.1-1.9-0.4c-0.6-0.2-1.1-0.6-1.5-1.1c-0.4-0.5-0.7-1.1-1-1.7s-0.3-1.5-0.3-2.4c0-0.9,0.1-1.7,0.3-2.4
		c0.2-0.7,0.5-1.3,0.9-1.7c0.4-0.5,0.9-0.8,1.5-1.1s1.2-0.4,2-0.4c0.7,0,1.3,0.1,1.9,0.4s1.1,0.6,1.5,1.1c0.4,0.5,0.7,1.1,1,1.7
		C-344.8,594.1-344.7,594.9-344.7,595.8z M-352.2,595.8c0,1.4,0.2,2.4,0.7,3.1c0.4,0.7,1.2,1,2.2,1s1.7-0.3,2.2-1
		c0.4-0.7,0.7-1.7,0.7-3.1c0-1.4-0.2-2.4-0.7-3.1s-1.2-1-2.2-1s-1.7,0.3-2.2,1S-352.2,594.4-352.2,595.8z"/>
	<path class="st0" d="M-340.1,601.2h-1.8V586h1.8V601.2z"/>
	<path class="st0" d="M-330.7,601.2l-0.4-1.5h-0.1c-0.2,0.3-0.4,0.5-0.6,0.8c-0.2,0.2-0.4,0.4-0.7,0.5s-0.5,0.2-0.8,0.3
		c-0.3,0.1-0.7,0.1-1.1,0.1c-0.4,0-0.9-0.1-1.2-0.2s-0.7-0.3-1-0.6s-0.5-0.6-0.6-1s-0.2-0.9-0.2-1.4c0-1.1,0.4-1.9,1.1-2.5
		c0.8-0.6,1.9-0.9,3.4-0.9l1.8-0.1V594c0-0.4,0-0.8-0.1-1.1s-0.2-0.5-0.4-0.7c-0.2-0.2-0.4-0.3-0.7-0.4s-0.6-0.1-0.9-0.1
		c-0.5,0-1,0.1-1.5,0.2s-0.9,0.3-1.3,0.6l-0.6-1.3c0.5-0.3,1-0.5,1.6-0.7c0.6-0.2,1.2-0.3,1.9-0.3c0.7,0,1.2,0.1,1.7,0.2
		c0.5,0.1,0.9,0.3,1.2,0.6c0.3,0.3,0.6,0.7,0.7,1.1s0.2,1,0.2,1.6v7.3H-330.7z M-334,599.9c0.4,0,0.8-0.1,1.1-0.2
		c0.3-0.1,0.6-0.3,0.9-0.6c0.2-0.2,0.4-0.6,0.6-0.9s0.2-0.8,0.2-1.3v-1l-1.4,0.1c-0.6,0-1.1,0.1-1.5,0.2c-0.4,0.1-0.7,0.2-1,0.4
		s-0.4,0.4-0.5,0.7s-0.2,0.6-0.2,0.9c0,0.6,0.2,1,0.5,1.3C-334.9,599.8-334.5,599.9-334,599.9z"/>
</g>
<g>
	<path class="st1" d="M-500.5,564c0,4-3.3,7.3-7.3,7.3c-4,0-7.3-3.3-7.3-7.3c0-4,3.3-7.3,7.3-7.3
		C-503.8,556.6-500.5,559.9-500.5,564L-500.5,564z"/>
	<path class="st2" d="M-561.9,551.1l-3.5-0.2c-0.1,6.6,3.5,13.1,11,18.1c7.5,5,17.7,7.6,28.4,7.8
		C-551.6,571.7-561.6,559.3-561.9,551.1L-561.9,551.1z"/>
	<path class="st1" d="M-499.3,593.8c14.1-13.6,8.3-40.6-0.8-48.7c4.5,7.2,9.4,28.7-9.4,29.5c-10.5,0.5-18.4-10.1-22.8-19
		c-0.2,7.3,3.5,14.8,10.7,21c7.1,6.1,13.7,12.9,3.8,18.9c-7.6,4.6-20.4,3-24.9-0.2C-530.2,609-508.7,602.1-499.3,593.8L-499.3,593.8
		z"/>
	<path class="st2" d="M-523.7,607.3c-18,0-32.6-14.6-32.6-32.6c0-18,14.6-32.6,32.6-32.6c9.6,0,18.2,4.2,24.2,10.8
		c-0.1-0.6-6.6-13.2-26-13.2c-19,0-34.4,15.4-34.4,34.4c0,19,15.4,34.4,34.4,34.4c10.7,0,20.2-4.9,26.5-12.5
		C-504.9,602.8-513.8,607.3-523.7,607.3L-523.7,607.3z"/>
	<path class="st2" d="M-527.8,609c-21,0-38.1-17-38.1-38.1c0-21,17-38.1,38.1-38.1c10.7,0,20.4,4.4,27.3,11.6
		c-0.6-1.4-10.7-14.4-29.4-14.4c-22.2,0-40.1,18-40.1,40.1c0,22.2,18,40.1,40.1,40.1c12.5,0,23.6-5.7,31-14.6
		C-505.9,603.8-516.2,609-527.8,609L-527.8,609z"/>
	<path class="st2" d="M-565.9,571.5l-3.8,0.7c1.7,6.8,16.5,26.1,48.9,18.2C-549.5,592.4-563.4,579.7-565.9,571.5L-565.9,571.5z"/>
</g>
</svg>
