<?xml version="1.0" encoding="utf-8"?>
<!-- Generator: Adobe Illustrator 19.1.0, SVG Export Plug-In . SVG Version: 6.00 Build 0)  -->
<svg version="1.1" id="Lager_1" xmlns="http://www.w3.org/2000/svg" xmlns:xlink="http://www.w3.org/1999/xlink" x="0px" y="0px"
	 width="480.2px" height="80.3px" viewBox="0 0 480.2 80.3" style="enable-background:new 0 0 480.2 80.3;" xml:space="preserve">
<style type="text/css">
	.st0{fill:#5EBB8B;}
	.st1{font-family:'DroidSans';}
	.st2{font-size:20px;}
	.st3{fill-rule:evenodd;clip-rule:evenodd;fill:#5EBB8B;}
	.st4{fill-rule:evenodd;clip-rule:evenodd;fill:#31A5DF;}
</style>
<g>
	<text transform="matrix(1 0 0 1 94.1238 45.5707)" class="st0 st1 st2">Vallentuna Internationella Montessoriskola</text>
</g>
<g>
	<path class="st3" d="M69.5,33.9c0,4-3.3,7.3-7.3,7.3c-4,0-7.3-3.3-7.3-7.3c0-4,3.3-7.3,7.3-7.3C66.2,26.6,69.5,29.9,69.5,33.9
		L69.5,33.9z"/>
	<path class="st4" d="M8.1,21.1l-3.5-0.2c-0.1,6.6,3.5,13.1,11,18.1c7.5,5,17.7,7.6,28.4,7.8C18.4,41.7,8.4,29.3,8.1,21.1L8.1,21.1z
		"/>
	<path class="st3" d="M70.7,63.8c14.1-13.6,8.3-40.6-0.8-48.7c4.5,7.2,9.4,28.7-9.4,29.5C50,45.1,42,34.6,37.7,25.7
		c-0.2,7.3,3.5,14.8,10.7,21c7.1,6.1,13.7,12.9,3.8,18.9c-7.6,4.6-20.4,3-24.9-0.2C39.8,78.9,61.3,72.1,70.7,63.8L70.7,63.8z"/>
	<path class="st4" d="M46.3,77.3c-18,0-32.6-14.6-32.6-32.6c0-18,14.6-32.6,32.6-32.6c9.6,0,18.2,4.2,24.2,10.8
		c-0.1-0.6-6.6-13.2-26-13.2C25.6,9.6,10.2,25,10.2,44c0,19,15.4,34.4,34.4,34.4c10.7,0,20.2-4.9,26.5-12.5
		C65.1,72.8,56.2,77.3,46.3,77.3L46.3,77.3z"/>
	<path class="st4" d="M42.2,79c-21,0-38.1-17-38.1-38.1c0-21,17-38.1,38.1-38.1c10.7,0,20.4,4.4,27.3,11.6C68.9,13,58.8,0,40.1,0
		C18,0,0,18,0,40.1c0,22.2,18,40.1,40.1,40.1c12.5,0,23.6-5.7,31-14.6C64.1,73.8,53.8,79,42.2,79L42.2,79z"/>
	<path class="st4" d="M4.1,41.5l-3.8,0.7C2,49,16.9,68.3,49.3,60.4C20.5,62.4,6.6,49.7,4.1,41.5L4.1,41.5z"/>
</g>
</svg>
