<?xml version="1.0" encoding="utf-8"?>
<!-- Generator: Adobe Illustrator 19.1.0, SVG Export Plug-In . SVG Version: 6.00 Build 0)  -->
<svg version="1.1" id="Lager_1" xmlns="http://www.w3.org/2000/svg" xmlns:xlink="http://www.w3.org/1999/xlink" x="0px" y="0px"
	 width="22px" height="22px" viewBox="0 0 22 22" style="enable-background:new 0 0 22 22;" xml:space="preserve">
<style type="text/css">
	.st0{fill:#3AA2DB;}
</style>
<path class="st0" d="M21,16c-0.9-0.9-3.5-2.7-5.2-2.7c-0.4,0-0.7,0.1-1,0.3c-0.8,0.5-1.5,0.9-1.8,0.9c-0.2,0-0.4-0.2-0.8-0.5
	l-0.1-0.1c-1.1-1-1.4-1.2-1.8-1.7l-0.1-0.1C10.1,12,10,11.9,10,11.9c-0.4-0.4-0.7-0.7-1.7-1.8l0-0.1C7.8,9.5,7.5,9.1,7.4,8.8
	c0-0.2,0.2-0.7,0.8-1.4c0.7-0.9,0.7-2,0.1-3.3c-0.5-1-1.3-2-2-2.9L6.2,1.1C5.6,0.4,4.9,0,4.1,0c-0.9,0-1.6,0.5-2,0.7
	c0,0-0.1,0-0.1,0.1C1.1,1.3,0.5,2.1,0.3,2.9C-0.1,4-0.3,5.5,1.4,8.6c1.5,2.7,2.8,4.5,4.9,6.7c2,2,2.9,2.7,4.9,4.1
	c2.2,1.6,4.3,2.5,5.8,2.5c1.4,0,2.5,0,4-1.9C22.6,18.2,22,17,21,16z"/>
</svg>
