<?xml version="1.0" encoding="utf-8"?>
<!-- Generator: Adobe Illustrator 19.1.0, SVG Export Plug-In . SVG Version: 6.00 Build 0)  -->
<svg version="1.1" id="Lager_1" xmlns="http://www.w3.org/2000/svg" xmlns:xlink="http://www.w3.org/1999/xlink" x="0px" y="0px"
	 width="64px" height="64px" viewBox="0 0 64 64" style="enable-background:new 0 0 64 64;" xml:space="preserve">
<style type="text/css">
	.st0{opacity:0.2;}
	.st1{fill:#808285;}
	.st2{fill:#F9F9F9;}
</style>
<g class="st0">
	<g>
		<circle class="st1" cx="32" cy="32" r="32"/>
	</g>
</g>
<g>
	<g>
		<g>
			<path class="st2" d="M23,21.1c-1.6,0-2.8,0.5-3.8,1.5c-0.9,1-1.4,2.4-1.4,4.1c0,1.7,0.5,3.1,1.4,4.2c0.9,1.1,2.2,1.6,3.7,1.6
				c0.5,0,1.4-0.1,2.5-0.4c-0.4,1.9-0.9,3.5-1.8,4.7s-2.2,2.4-4.1,3.7l1.7,2.3c5.5-3.9,8.2-8.4,8.2-13.5c0-2.5-0.6-4.4-1.7-6
				S24.9,21.1,23,21.1z"/>
			<path class="st2" d="M44.4,23.4c-1.2-1.5-2.7-2.3-4.6-2.3c-1.6,0-2.8,0.5-3.8,1.5c-0.9,1-1.4,2.4-1.4,4.1c0,1.7,0.5,3.1,1.4,4.2
				c0.9,1.1,2.2,1.6,3.7,1.6c0.5,0,1.4-0.1,2.5-0.4c-0.4,1.9-0.9,3.5-1.8,4.7s-2.2,2.4-4.1,3.7l1.7,2.3c5.5-3.9,8.2-8.4,8.2-13.5
				C46.2,26.9,45.6,24.9,44.4,23.4z"/>
		</g>
	</g>
</g>
</svg>
