<?xml version="1.0" encoding="utf-8"?>
<!-- Generator: Adobe Illustrator 19.1.0, SVG Export Plug-In . SVG Version: 6.00 Build 0)  -->
<svg version="1.1" id="Lager_1" xmlns="http://www.w3.org/2000/svg" xmlns:xlink="http://www.w3.org/1999/xlink" x="0px" y="0px"
	 width="33.2px" height="25.3px" viewBox="0 0 33.2 25.3" style="enable-background:new 0 0 33.2 25.3;" xml:space="preserve">
<style type="text/css">
	.st0{fill:none;stroke:#3F3E40;stroke-width:1.0909;stroke-miterlimit:10;}
</style>
<path class="st0" d="M31.7,3.6c-1.1,0.5-2.2,0.8-3.5,1c1.2-0.8,2.2-1.9,2.7-3.3c-1.2,0.7-2.5,1.2-3.8,1.5c-1.1-1.2-2.7-1.9-4.4-1.9
	c-3.3,0-6,2.7-6,6.1c0,0.5,0,0.9,0.2,1.4c-5-0.2-9.5-2.7-12.5-6.3c-0.5,0.9-0.8,1.9-0.8,3c0,2.1,1.1,4,2.7,5c-1,0-1.9-0.3-2.7-0.8
	c0,0,0,0.1,0,0.1c0,2.9,2.1,5.4,4.9,5.9c-0.5,0.1-1,0.2-1.6,0.2c-0.4,0-0.8,0-1.1-0.1c0.8,2.4,3,4.2,5.7,4.2
	c-2.1,1.6-4.7,2.6-7.5,2.6c-0.5,0-1,0-1.4-0.1c2.7,1.7,5.8,2.7,9.3,2.7c11.1,0,17.2-9.2,17.2-17.2c0-0.3,0-0.5,0-0.8
	C29.9,5.9,30.9,4.8,31.7,3.6z"/>
</svg>
